<svg xmlns="http://www.w3.org/2000/svg" viewBox="-0.072 -1.294 24 24" fill="currentColor">
  <path d="m 21.228091,17.705635 a 2.42,2.42 0 0 1 -2.5,0.56 l -2.35,2.35 a 0.34,0.34 0 0 1 -0.49,0 l -1,-1 a 0.36,0.36 0 0 1 0,-0.49 l 2.36,-2.35 a 2.39,2.39 0 0 1 3.39,-2.91 l -1.59,1.64 1,1 1.62,-1.62 a 2.39,2.39 0 0 1 -0.44,2.82 z m 0.7,-11 v 5.76 a 4.47,4.47 0 0 0 -2.5,-0.76 4.57,4.57 0 0 0 -1.29,0.19 v -3.9 h -1.55 v 4.71 a 4.5,4.5 0 0 0 -1.66,3.5 4.07,4.07 0 0 0 0,0.5 H 3.9280908 a 2,2 0 0 1 -2,-2 v -8 a 2,2 0 0 1 2,-2 H 19.928091 a 2,2 0 0 1 2,2 z m -11,7 -1.9100002,-5.73 h -2.09 l -1.83,5.73 h 1.7 l 0.29,-1.07 h 1.84 l 0.29,1.07 z m 4.77,-3.89 a 1.67,1.67 0 0 0 -0.55,-1.35 2.43,2.43 0 0 0 -1.62,-0.47 h -2 v 5.71 h 1.54 v -1.89 h 0.44 a 2.75,2.75 0 0 0 1,-0.17 1.82,1.82 0 0 0 0.67,-0.44 1.63,1.63 0 0 0 0.36,-0.64 2.36,2.36 0 0 0 0.14,-0.75 z m -7.3000002,0.62 -0.12,-0.44 -0.15,-0.58 c 0,-0.21 -0.08,-0.37 -0.11,-0.5 a 4.63,4.63 0 0 1 -0.1,0.48 c 0,0.19 -0.08,0.38 -0.13,0.57 -0.05,0.19 -0.08,0.34 -0.12,0.47 l -0.24,0.93 h 1.19 z m 5.5900002,-1 a 0.63,0.63 0 0 0 -0.5,-0.17 h -0.4 v 1.31 h 0.31 a 0.9,0.9 0 0 0 0.37,-0.07 0.59,0.59 0 0 0 0.27,-0.22 0.75,0.75 0 0 0 0.11,-0.42 0.57,0.57 0 0 0 -0.22,-0.45 z"/>
</svg>
